<svg width="256" height="754" viewBox="0 0 256 754" fill="none" xmlns="http://www.w3.org/2000/svg">
<g opacity="0.05">
<g style="mix-blend-mode:soft-light">
<path d="M86.5704 464.698C81.0932 484.088 65.0761 498.594 48.1286 513.954C30.1921 530.216 11.621 547.039 1.40878 571.965C-5.23962 588.206 -7.12021 604.059 -6.5018 618.376C-8.44468 617.543 -10.378 616.675 -12.3018 615.773C-106.665 571.529 -151.195 461.576 -127.782 346.752C-127.381 344.856 -126.979 342.957 -126.577 341.056C-122.676 323.561 -117.239 306.198 -110.34 289.203C-105.214 276.561 -99.3242 264.151 -92.7133 252.06C-80.0301 228.886 -49.8931 229.5 -45.9291 252.917C-39.2819 292.523 -24.1251 328.481 -1.51825 358.279C21.0886 388.078 50.6001 410.997 84.9536 425.434L85.0217 425.437C89.2869 440.307 89.8038 453.314 86.5704 464.698Z" fill="white"/>
<path d="M112.587 279.463C122.825 270.81 130.929 259.564 135.875 247.146C140.82 234.728 142.386 221.697 140.373 209.699C138.36 197.701 132.859 187.275 124.566 179.741C116.273 172.207 105.56 167.902 93.7822 167.371C82.004 166.84 69.6896 170.106 58.3962 176.757C47.1028 183.408 37.3375 193.145 30.3353 204.737C23.333 216.328 19.4082 229.254 19.0572 241.879C18.7061 254.504 21.9446 266.261 28.3632 275.665C36.9721 288.274 50.6818 295.757 66.4766 296.469C82.2714 297.182 98.8577 291.064 112.587 279.463Z" fill="white"/>
<path d="M297.898 345.714C308.136 337.062 316.24 325.816 321.186 313.398C326.132 300.98 327.697 287.948 325.684 275.95C323.671 263.952 318.17 253.527 309.877 245.992C301.584 238.458 290.871 234.153 279.093 233.622C267.315 233.091 255.001 236.358 243.707 243.009C232.414 249.66 222.649 259.397 215.646 270.988C208.644 282.58 204.719 295.505 204.368 308.13C204.017 320.755 207.256 332.513 213.674 341.916C217.936 348.16 223.496 353.212 230.035 356.782C236.575 360.352 243.966 362.371 251.787 362.724C259.608 363.077 267.706 361.756 275.618 358.837C283.529 355.919 291.1 351.46 297.898 345.714Z" fill="white"/>
<path d="M374.773 412.886L374.758 412.96C374.38 414.771 373.847 416.572 373.166 418.339C370.36 425.641 367.275 432.927 363.912 440.199C295.913 586.781 137.236 668.762 8.6334 624.272L8.31294 624.16C6.47676 609.453 7.21315 592.601 14.1609 575.627C22.7267 554.647 39.6863 539.295 56.0699 524.455C74.2578 507.98 93.0598 490.944 99.9909 466.437C103.043 455.619 103.569 444.12 101.504 431.632C138.215 443.785 178.621 446.391 219.729 439.256C260.837 432.122 301.593 415.431 338.979 390.419C358.732 377.215 379.108 391.513 374.773 412.886Z" fill="white"/>
</g>
</g>
</svg>
