<svg width="198" height="166" viewBox="0 0 198 166" fill="none" xmlns="http://www.w3.org/2000/svg">
<path d="M86.6065 39.3051C89.8263 36.0849 92.019 31.9823 92.9073 27.5159C93.7955 23.0496 93.3394 18.4202 91.5966 14.2131C89.8539 10.006 86.9027 6.41013 83.1163 3.88023C79.33 1.35033 74.8785 0 70.3247 0C65.7709 0 61.3193 1.35033 57.533 3.88023C53.7466 6.41013 50.7955 10.006 49.0527 14.2131C47.3099 18.4202 46.8538 23.0496 47.7421 27.5159C48.6303 31.9823 50.823 36.0849 54.0428 39.3051C56.1809 41.4434 58.7193 43.1396 61.5129 44.2968C64.3066 45.4541 67.3008 46.0497 70.3247 46.0497C73.3485 46.0497 76.3428 45.4541 79.1364 44.2968C81.9301 43.1396 84.4684 41.4434 86.6065 39.3051Z" fill="white"/>
<path d="M162.943 59.7609C166.163 56.5407 168.356 52.4381 169.244 47.9718C170.132 43.5054 169.676 38.876 167.933 34.6689C166.191 30.4618 163.239 26.8659 159.453 24.336C155.667 21.8061 151.215 20.4558 146.661 20.4558C142.108 20.4558 137.656 21.8061 133.87 24.336C130.083 26.8659 127.132 30.4618 125.389 34.6689C123.647 38.876 123.19 43.5054 124.079 47.9718C124.967 52.4381 127.16 56.5407 130.38 59.7609C132.518 61.8992 135.056 63.5954 137.85 64.7526C140.643 65.9099 143.637 66.5055 146.661 66.5055C149.685 66.5055 152.679 65.9099 155.473 64.7526C158.267 63.5954 160.805 61.8992 162.943 59.7609Z" fill="white"/>
<path d="M197.652 84.0558C197.169 86.6768 196.578 89.2986 195.879 91.9213C181.981 143.773 129.658 175.062 77.7925 163.37C75.6292 158.197 74.2063 152.071 75.5106 145.873C76.944 139.062 81.6976 133.9 86.7332 128.435C92.6488 122.013 98.7647 115.373 99.4946 105.721C99.7818 101.913 99.1836 97.9555 97.6501 93.7685C112.293 96.9225 127.447 96.8541 142.06 93.568C156.674 90.282 170.399 83.857 182.282 74.7383C189.333 69.3365 199.259 75.3286 197.652 84.0558Z" fill="white"/>
<path d="M88.9834 104.917C88.5302 110.917 84.106 115.721 78.9703 121.286C73.4605 127.265 67.2155 134.045 65.1838 143.684C63.9981 149.325 64.3933 154.801 65.5817 159.786C19.5004 143.162 -7.90382 94.1505 2.02758 46.1272C2.96633 41.5795 4.21652 37.1017 5.76932 32.7255C8.74163 24.3435 20.3331 24.0668 23.7481 32.2802C29.2341 45.5202 37.4168 57.4729 47.7753 67.3773C58.1338 77.2816 70.4411 84.9207 83.9136 89.808C87.6369 95.6499 89.3075 100.656 88.9834 104.917Z" fill="white"/>
</svg>
