<svg width="960" height="166" viewBox="0 0 960 166" fill="none" xmlns="http://www.w3.org/2000/svg">
<g clip-path="url(#clip0_939_7263)">
<path d="M279.687 50.7114C297.023 50.7114 307.052 59.6283 309.157 74.9826L291.45 76.2211C290.707 70.4003 286.251 66.6849 279.687 66.6849C270.275 66.6849 266.19 73.2488 266.19 82.9062C266.19 92.5635 270.275 99.13 279.687 99.13C286.251 99.13 290.707 95.4146 291.45 89.5939L309.157 90.8323C307.049 106.187 297.036 115.104 279.687 115.104C258.14 115.104 247.368 101.48 247.368 82.9062C247.368 64.3319 258.14 50.7114 279.687 50.7114Z" fill="white"/>
<path d="M347.296 50.7112C368.843 50.7112 379.617 64.3316 379.617 82.9059C379.617 101.48 368.843 115.103 347.296 115.103C325.626 115.103 314.854 101.48 314.854 82.9059C314.854 64.3316 325.626 50.7112 347.296 50.7112ZM347.296 99.1298C356.585 99.1298 360.919 92.5659 360.919 82.9059C360.919 73.2459 356.585 66.6847 347.296 66.6847C337.887 66.6847 333.676 73.2485 333.676 82.9059C333.676 92.5633 337.887 99.1298 347.296 99.1298Z" fill="white"/>
<path d="M434.226 69.657C412.927 69.657 404.381 81.2959 404.381 98.3788V113.857H385.559V51.9338H404.381V64.935C404.381 69.5174 402.4 72.1181 400.914 74.3474L402.276 75.3381C407.849 68.0312 411.688 51.9338 434.226 51.9338V69.657Z" fill="white"/>
<path d="M439.92 51.9496H458.629V55.4173C458.752 60.7427 457.266 64.5793 456.152 67.4278L457.762 68.2947C462.096 54.3027 471.134 50.7112 480.423 50.7112C499.493 50.7112 509.145 64.3316 509.145 82.9059C509.145 101.615 499.487 115.103 480.423 115.103C471.134 115.103 462.096 111.512 457.762 97.5198L456.152 98.3867C457.266 101.356 458.629 105.196 458.629 110.645V144.821H439.92V51.9496ZM458.742 84.6398C458.742 90.5844 462.086 99.7464 475.079 99.7464C482.386 99.7464 490.309 95.9098 490.309 82.7821C490.309 69.9047 482.386 66.0655 475.079 66.0655C462.078 66.0655 458.742 75.2301 458.742 81.1721V84.6398Z" fill="white"/>
<path d="M547.65 50.7112C569.197 50.7112 579.969 64.3316 579.969 82.9059C579.969 101.48 569.197 115.103 547.65 115.103C525.98 115.103 515.208 101.48 515.208 82.9059C515.208 64.3316 525.98 50.7112 547.65 50.7112ZM547.65 99.1298C556.939 99.1298 561.271 92.5659 561.271 82.9059C561.271 73.2459 556.939 66.6847 547.65 66.6847C538.241 66.6847 534.03 73.2485 534.03 82.9059C534.03 92.5633 538.241 99.1298 547.65 99.1298Z" fill="white"/>
<path d="M655.257 119.807C655.257 137.021 640.764 146.06 622.443 146.06C604.364 146.06 589.753 136.898 589.753 120.178H608.575C608.575 125.999 613.281 130.086 622.443 130.086C631.979 130.086 636.435 126.133 636.435 119.809V110.408C636.435 105.082 637.921 101.243 638.912 98.3972L637.302 97.5303C633.086 111.522 624.053 115.114 614.641 115.114C595.571 115.114 586.035 101.491 586.035 82.9164C586.035 64.3421 595.571 50.7217 614.641 50.7217C624.05 50.7217 633.086 54.4371 637.302 68.429L638.912 67.4383C637.921 64.5898 636.435 60.6294 636.435 55.3172V51.9496H655.143L655.257 119.807ZM636.435 81.2959C636.435 75.2353 633.094 66.0654 620.098 66.0654C612.793 66.0654 604.867 70.018 604.867 82.9059C604.867 95.9097 612.793 99.7463 620.098 99.7463C633.101 99.7463 636.435 90.5843 636.435 84.6397V81.2959Z" fill="white"/>
<path d="M685.968 75.4777C692.16 75.4777 697.979 76.7162 702.065 79.9362V77.3354C702.065 71.0114 698.598 66.7953 689.188 66.7953C680.89 66.7953 673.214 69.8915 669.004 72.6161L661.821 58.387C669.128 54.1709 679.776 50.7085 691.293 50.7085C700.455 50.7085 720.887 51.5754 720.887 74.4843V113.865H702.179V109.912C702.179 103.852 705.399 99.2641 706.395 96.4156L704.909 95.6725C700.202 106.816 694.88 115.238 681.257 115.238C670.608 115.238 661.815 108.055 661.815 95.9202C661.821 80.8005 674.566 75.4777 685.968 75.4777ZM692.292 83.1536C684.124 83.1536 680.651 88.6028 680.651 94.2997C680.651 100.118 684.118 102.842 688.819 102.842C695.143 102.842 700.458 97.0243 701.82 87.1166C699.836 84.6397 696.74 83.1536 692.284 83.1536H692.292Z" fill="white"/>
<path d="M784.162 72.7532C789.859 65.4462 792.955 50.7112 808.931 50.7112C816.734 50.7112 826.639 53.1881 826.639 70.8955V113.865H808.064V79.9362C808.064 71.8862 804.349 69.4093 800.265 69.4093C791.1 69.4093 786.27 80.5528 786.27 91.3274L786.146 113.865H767.583V79.9362C767.583 71.7677 763.994 69.4093 759.907 69.4093C750.618 69.4093 745.788 80.5528 745.788 91.3274V113.865H727.08V51.9417H745.788V58.7612C745.788 66.5609 744.057 69.4093 742.447 71.5147L743.686 72.7532C749.38 65.4462 752.476 50.7112 770.059 50.7112C776.499 50.7112 785.661 53.1881 785.661 64.0839C785.661 67.7993 784.051 70.0285 782.939 71.5147L784.162 72.7532Z" fill="white"/>
<path d="M864.024 50.7112C881.36 50.7112 893.247 59.6281 893.247 81.0482V86.2498L851.766 86.6213C852.633 94.1759 856.717 99.1298 865.51 99.1298C872.443 99.1298 876.406 95.1772 878.512 90.8321L893.371 98.7582C889.154 108.911 878.512 115.095 864.649 115.095C843.102 115.095 832.702 101.472 832.702 82.898C832.702 64.3237 842.486 50.7112 864.024 50.7112ZM874.92 74.3632C874.92 69.5332 871.207 65.6939 864.643 65.6939C858.08 65.6939 854.367 69.1616 852.754 74.3632H874.92Z" fill="white"/>
<path d="M928.298 50.7112C938.825 50.7112 958.39 51.5781 958.39 70.6478V72.1339H939.682V70.4001C939.682 66.8086 935.966 65.1985 929.278 65.1985C921.85 65.1985 918.259 66.9324 918.259 69.657C918.259 73.2485 925.811 73.9916 933.613 75.4778C945.252 77.8309 959.99 79.1932 959.99 95.0428C959.99 109.035 947.853 115.103 929.774 115.103C916.153 115.103 899.437 111.016 899.437 92.8136V91.3274H918.259V93.0613C918.259 98.139 922.841 100.613 930.765 100.613C935.842 100.613 941.292 99.3775 941.292 95.6621C941.292 91.2036 932.859 89.8413 926.43 88.7267C914.791 86.2498 899.553 84.8874 899.553 70.7716C899.571 57.6466 908.857 50.7112 928.298 50.7112Z" fill="white"/>
<path d="M86.6053 39.3067C89.8251 36.0865 92.0178 31.9839 92.906 27.5175C93.7943 23.0512 93.3382 18.4218 91.5954 14.2147C89.8527 10.0076 86.9015 6.41172 83.1151 3.88182C79.3288 1.35191 74.8772 0.00158691 70.3234 0.00158691C65.7697 0.00158691 61.3181 1.35191 57.5318 3.88182C53.7454 6.41172 50.7942 10.0076 49.0515 14.2147C47.3087 18.4218 46.8526 23.0512 47.7408 27.5175C48.6291 31.9839 50.8218 36.0865 54.0416 39.3067C56.1797 41.445 58.718 43.1412 61.5117 44.2984C64.3053 45.4557 67.2996 46.0513 70.3234 46.0513C73.3473 46.0513 76.3415 45.4557 79.1352 44.2984C81.9288 43.1412 84.4672 41.445 86.6053 39.3067Z" fill="white"/>
<path d="M162.942 59.7624C166.162 56.5422 168.354 52.4395 169.243 47.9732C170.131 43.5069 169.675 38.8775 167.932 34.6704C166.189 30.4633 163.238 26.8674 159.452 24.3375C155.665 21.8076 151.214 20.4573 146.66 20.4573C142.106 20.4573 137.655 21.8076 133.868 24.3375C130.082 26.8674 127.131 30.4633 125.388 34.6704C123.645 38.8775 123.189 43.5069 124.078 47.9732C124.966 52.4395 127.158 56.5422 130.378 59.7624C132.516 61.9006 135.055 63.5968 137.848 64.7541C140.642 65.9113 143.636 66.507 146.66 66.507C149.684 66.507 152.678 65.9113 155.472 64.7541C158.266 63.5968 160.804 61.9006 162.942 59.7624Z" fill="white"/>
<path d="M197.65 84.0573C197.167 86.6782 196.576 89.3001 195.877 91.9228C181.98 143.775 129.656 175.063 77.7911 163.371C75.6277 158.199 74.2048 152.072 75.5091 145.875C76.9426 139.063 81.6962 133.901 86.7317 128.436C92.6473 122.015 98.7632 115.375 99.4931 105.722C99.7803 101.915 99.1822 97.957 97.6486 93.7699C112.291 96.9239 127.445 96.8555 142.059 93.5695C156.673 90.2835 170.397 83.8584 182.28 74.7398C189.332 69.338 199.258 75.33 197.65 84.0573Z" fill="white"/>
<path d="M88.9822 104.919C88.529 110.919 84.1047 115.722 78.9691 121.287C73.4592 127.266 67.2142 134.046 65.1826 143.685C63.9969 149.327 64.3921 154.802 65.5805 159.788C19.4992 143.163 -7.90504 94.152 2.02636 46.1287C2.96511 41.581 4.2153 37.1032 5.7681 32.7269C8.74041 24.3449 20.3319 24.0683 23.7469 32.2816C29.2329 45.5217 37.4156 57.4744 47.7741 67.3787C58.1326 77.2831 70.4399 84.9221 83.9124 89.8095C87.6357 95.6513 89.3063 100.658 88.9822 104.919Z" fill="white"/>
</g>
<defs>
<clipPath id="clip0_939_7263">
<rect width="960" height="165.812" fill="white"/>
</clipPath>
</defs>
</svg>
