<svg width="105" height="100" viewBox="0 0 105 100" fill="none" xmlns="http://www.w3.org/2000/svg">
<path d="M50.5949 1.19736C51.3568 -0.39912 53.6292 -0.399119 54.391 1.19736L68.6585 31.0972C68.9651 31.7397 69.5759 32.1835 70.2817 32.2765L103.127 36.6061C104.881 36.8373 105.583 38.9986 104.3 40.2164L80.2725 63.0252C79.7562 63.5153 79.5229 64.2333 79.6525 64.9333L85.6846 97.509C86.0067 99.2484 84.1682 100.584 82.6135 99.7403L53.4962 83.937C52.8705 83.5975 52.1155 83.5975 51.4898 83.937L22.3725 99.7403C20.8178 100.584 18.9793 99.2484 19.3014 97.509L25.3334 64.9333C25.4631 64.2333 25.2297 63.5153 24.7134 63.0252L0.685907 40.2164C-0.597025 38.9986 0.105211 36.8373 1.85896 36.6061L34.7043 32.2765C35.4101 32.1835 36.0209 31.7397 36.3275 31.0972L50.5949 1.19736Z" fill="black"/>
</svg>
